{"title":"CO2.2010.1080p.BluRay.x264.DTS-FGT","uid":15432137,"size":9840987328,"categoryP":"video","categoryS":"hd___movies","magnet":"?xt=urn:btih:e712387677f8ab68c019a3ce5c7a2e19a5a51914&amp;dn=CO2.2010.1080p.BluRay.x264.DTS-FGT&amp;tr=udp%3A%2F%2Ftracker.leechers-paradise.org%3A6969&amp;tr=udp%3A%2F%2Fzer0day.ch%3A1337&amp;tr=udp%3A%2F%2Fopen.demonii.com%3A1337&amp;tr=udp%3A%2F%2Ftracker.coppersurfer.tk%3A6969&amp;tr=udp%3A%2F%2Fexodus.desync.com%3A6969","seeders":1,"leechers":0,"uploader":null,"files":3,"time":1469732600,"description":"Video\r\nID                                       : 1\r\nFormat                                   : AVC\r\nFormat/Info                              : Advanced Video Codec\r\nFormat profile                           :   \r\nFormat settings, CABAC                   : Yes\r\nFormat settings, ReFrames                : 5 frames\r\nCodec ID                                 : V_MPEG4/ISO/AVC\r\nDuration                                 : 1h 45mn\r\nBit rate                                 : 10.7 Mbps\r\nWidth                                    : 1 920 pixels\r\nHeight                                   : 816 pixels\r\nDisplay aspect ratio                     : 2.35:1\r\nFrame rate mode                          : Constant\r\nFrame rate                               : 23.976 (24000/1001) fps\r\nColor space                              : YUV\r\nChroma subsampling                       : 4:2:0\r\nBit depth                                : 8 bits\r\nScan type                                : Progressive\r\nBits/(Pixel*Frame)                       : 0.284\r\nStream size                              : 7.87 GiB (86%)\r\nWriting library                          : x264 core 120 r2164 da19765\r\nEncoding settings                        : cabac=1 / ref=5 / deblock=1:-3:-3 / analyse=0x3:0x133 / me=umh / subme=7 / psy=1 / psy_rd=1.00:0.15 / mixed_ref=1 / me_range=16 / chroma_me=1 / trellis=1 / 8x8dct=1 / cqm=0 / deadzone=21,11 / fast_pskip=0 / chroma_qp_offset=-3 / threads=12 / sliced_threads=0 / nr=0 / decimate=1 / interlaced=0 / bluray_compat=0 / constrained_intra=0 / bframes=3 / b_pyramid=2 / b_adapt=1 / b_bias=0 / direct=3 / weightb=1 / open_gop=0 / weightp=2 / keyint=240 / keyint_min=23 / scenecut=40 / intra_refresh=0 / rc_lookahead=40 / rc=crf / mbtree=1 / crf=20.0 / qcomp=0.60 / qpmin=0 / qpmax=69 / qpstep=4 / ip_ratio=1.40 / aq=1:1.00\r\nLanguage                                 : English\r\nDefault                                  : Yes\r\nForced                                   : No\r\n\r\nAudio\r\nID                                       : 2\r\nFormat                                   : DTS\r\nFormat/Info                              : Digital Theater Systems\r\nMode                                     : 16\r\nFormat settings, Endianness              : Big\r\nCodec ID                                 : A_DTS\r\nDuration                                 : 1h 45mn\r\nBit rate mode                            : Constant\r\nBit rate                                 : 1 509 Kbps\r\nChannel(s)                               : 6 channels\r\nChannel positions                        : Front: L C R, Side: L R, LFE\r\nSampling rate                            : 48.0 KHz\r\nFrame rate                               : 93.750 fps (512 spf)\r\nBit depth                                : 24 bits\r\nCompression mode                         : Lossy\r\nStream size                              : 1.11 GiB (12%)\r\nLanguage                                 : English\r\nDefault                                  : Yes\r\nForced                                   : No","torrent":{"xt":"urn:btih:e712387677f8ab68c019a3ce5c7a2e19a5a51914","amp;dn":"CO2.2010.1080p.BluRay.x264.DTS-FGT","amp;tr":["udp%3A%2F%2Ftracker.leechers-paradise.org%3A6969","udp%3A%2F%2Fzer0day.ch%3A1337","udp%3A%2F%2Fopen.demonii.com%3A1337","udp%3A%2F%2Ftracker.coppersurfer.tk%3A6969","udp%3A%2F%2Fexodus.desync.com%3A6969"],"infoHash":"e712387677f8ab68c019a3ce5c7a2e19a5a51914","infoHashBuffer":{"type":"Buffer","data":[231,18,56,118,119,248,171,104,192,25,163,206,92,122,46,25,165,165,25,20]},"announce":[],"urlList":[]}}